<mxfile host="app.diagrams.net" agent="Mozilla/5.0 (X11; Linux x86_64) AppleWebKit/537.36 (KHTML, like Gecko) Chrome/131.0.0.0 Safari/537.36" version="25.0.3">
  <diagram name="第 1 页" id="ebwW6ah09JPrhwfEJ-Hg">
    <mxGraphModel dx="1367" dy="913" grid="0" gridSize="10" guides="0" tooltips="1" connect="1" arrows="1" fold="1" page="1" pageScale="1" pageWidth="827" pageHeight="1169" math="0" shadow="0">
      <root>
        <mxCell id="0" />
        <mxCell id="1" parent="0" />
        <mxCell id="08xoC1FxWN-cvQ--sJ04-1" value="" style="rounded=1;whiteSpace=wrap;html=1;strokeWidth=3;" vertex="1" parent="1">
          <mxGeometry x="21" y="139" width="226" height="513" as="geometry" />
        </mxCell>
        <mxCell id="08xoC1FxWN-cvQ--sJ04-2" value="&lt;font face=&quot;Georgia&quot; style=&quot;font-size: 24px;&quot;&gt;&lt;b&gt;Existing&lt;/b&gt;&lt;/font&gt;&lt;div&gt;&lt;font face=&quot;Georgia&quot; style=&quot;font-size: 24px;&quot;&gt;&lt;b&gt;Dataset&lt;/b&gt;&lt;/font&gt;&lt;/div&gt;" style="text;html=1;align=center;verticalAlign=middle;resizable=0;points=[];autosize=1;strokeColor=none;fillColor=none;" vertex="1" parent="1">
          <mxGeometry x="77" y="68" width="102" height="70" as="geometry" />
        </mxCell>
        <mxCell id="08xoC1FxWN-cvQ--sJ04-3" value="&lt;b&gt;&lt;i&gt;Cabin Image&lt;/i&gt;&lt;/b&gt;" style="html=1;whiteSpace=wrap;strokeColor=none;fillColor=#0079D6;labelPosition=center;verticalLabelPosition=middle;verticalAlign=top;align=center;fontSize=12;outlineConnect=0;spacingTop=-6;fontColor=#FFFFFF;sketch=0;shape=mxgraph.sitemap.photo;" vertex="1" parent="1">
          <mxGeometry x="36" y="174" width="93" height="37" as="geometry" />
        </mxCell>
        <mxCell id="08xoC1FxWN-cvQ--sJ04-4" value="" style="dashed=0;outlineConnect=0;html=1;align=center;labelPosition=center;verticalLabelPosition=bottom;verticalAlign=top;shape=mxgraph.webicons.json;gradientColor=#DFDEDE" vertex="1" parent="1">
          <mxGeometry x="158" y="161" width="73" height="57.4" as="geometry" />
        </mxCell>
      </root>
    </mxGraphModel>
  </diagram>
</mxfile>
